<mxfile host="app.diagrams.net" agent="Mozilla/5.0 (X11; CrOS x86_64 14541.0.0) AppleWebKit/537.36 (KHTML, like Gecko) Chrome/127.0.0.0 Safari/537.36" version="24.7.8">
  <diagram name="Page-1" id="SaT9ljWF2VECIkljb1HF">
    <mxGraphModel dx="1956" dy="947" grid="1" gridSize="10" guides="1" tooltips="1" connect="1" arrows="1" fold="1" page="1" pageScale="1" pageWidth="850" pageHeight="1100" math="0" shadow="0">
      <root>
        <mxCell id="0" />
        <mxCell id="1" parent="0" />
        <mxCell id="tGE6Te9pi-L5Qc-fNbb4-1" value="" style="shape=image;verticalLabelPosition=bottom;labelBackgroundColor=default;verticalAlign=top;aspect=fixed;imageAspect=0;image=data:image/png,iVBORw0KGgoAAAANSUhEUgAAAL4AAAEJCAMAAAAdEm3WAAAAflBMVEUAAAD///+SkpLS0tKjo6PCwsLp6eldXV3IyMjm5ubc3Nzy8vIHBwe3t7eWlpZRUVFra2szMzOdnZ0gICBjY2NZWVm+vr45OTmCgoL29vZ0dHQYGBgrKytvb2+wsLBhYWFBQUGHh4dKSkoTExM+Pj6pqal7e3uEhIQlJSUcHBxLUr5OAAANm0lEQVR4nO2d6XqqMBCGWRQBK+CCFbeKVnt6/zd4mLAlmAQGIWgfvx/naB3glWUImS9R015Z5tAAjwnw557xivIOKf6X/pqyU/zJ0BwtNf47+M5racriW0PmjxZavDb+6I0/oN74Q+pP4o9mcq3PxQpiWdyI2tJpLVvhvog7U3E0qVcGxzX4Tt2dLihWYMvCHGrz8ibVdxG3Eizvln9ed4c/7hNfd8vlzRfE18sHkZfEB7jB8OlE1hJfz6/f/vE3q4DVRIBvTyqBwU6Ir1/R+KXm9EarH1bxT7wAHv5REneHr3vt8T+fAF+P1eD7uyWlf2L8mUYHLi81+PpWY24wPeFXtGMCJZcufXPm4usrTTuqxmd2qgx/UYuvh4T0tfDHVEPhc/Ny+KZmlW/il8NPaKa8+J7wHZeWI8afsoExHUfhR8nbSB3+Jy+Ah9807ydvl+rwz7yAB/GZ+36/+Kc+8LWTKvyfakPsQH0hpslWbdsFKzG+5ivCv9eVj3+vSIJ/t6gyfKo5IMefyvC1w2vjaxsm+OXwNaMnfGlHSXN86bkPWrTC31OdRgYP35D2Pm3LQGk31axMpVQ31ZreEKKb6mX0xh9Sb/wh9cYfUn8V33SfV85HLT7vGfNpVI/PfcR/Fr3xh9TT41uzQPIpBv8aJm8/DvKGfZeyjlvgM8URzfGTh+2v0XpmLLW9K15fZ3JSdJAhjmqMH2i3bBHzoq37Rj9olDj9U1j8TYK8nc/nnzcXeqEkx7Nb9JrLryG+CZ+H2m27Iqei9qEMHXQULtEQP7zAP3AUR9oWSlKdnz7OMeCRE/HrLAh88nwfQm/DVovh/UG4xjboVzE60YP4DukGCbV/81/tBI2gueRywsmtQwcJL7Vm+C5ZQaidT5o2g8XOv92grzisHMWP4U8JdAgH8R8xCtx39vaGDuKVJhD4+u9Xjv8DV63L9HW1QP9qjk5kCdbUEH8EHiaCP4Kb4KR9S8gdYdFB18fw9UuSOVdwDE3tlLQf4pboEx5bA4UP4lvapWjpGNpZJTrRg/i6tdMCewo5+oJO+u4ofAQdJGjmIhrMeR/3CdVidhcPo4N+HsZP9vzseh0jLlqzG3TQrgN8jMyF3xU6Ed+W1gt+1+g5nwL8PtBB/Nt8p/imJ3UDPKZ+8XtFB3Erl53g944OuvG2/DC+aShAB3GfTx/Ct42TGnQiXvdMW/xILTqI10Zvgz8AOojXTkTj24bU6dWnOJUGDH40IDqI0znTGD/6GRQdtH1k7w8BXNEj+D9DADO63D+wN8fnmniUaf7DfdBAXLpDUBPN47GovInA7+zJqSN0JP6Vt/o+9RnbdUVlBL5Sn0ADdCS+vlSFbjRCx+LHvG11rO/m6Fj8vucvOeHQsfh9ps4EHUmOx2/TN9xIrStlKHyZ2/4F8HtLna0LfbjHlT1v211IDT7XvNyF2rokcPi9pU5PCX5vqfOTT9c1foMScju17IZH4s94m+5CMyX4U96mu5DM8dUdvnw43yNSg+81pJlcNzj8dgYnLH6T1Pk1gjTu1gfSkhjWOsSvS51fV7dhZEV7Nfh8uxbR6srcPLfiSJ5apU40viB1VtBBa36kSGLDWpf40f2GOeiCSJnEhrUu8ak5UCToRMiqkRr8MnUGEnQQM2lEvdqkTjy+m6HXTh6DTZ2xEnxdC4716OzKG6lN6uzVAH/D7X6RYW0o/DEPUiyRYW0ofOSNt8U0pv3iI80lz4aPTJ34jrZ+8R0epFjxk+FX5oapk8CwNhw+shzZ8H6iDB9ZjkSnzr7HbeHwRV7fwfCR5chnw0eWI7Gps298ZJ/6pn6NSvH1XxQ+dkBV7/jIciQydfaOj+xT53t9h8NHpk7kwIb+8ZHlyGfDR5Yj5bMUqcdHpk6u13dAfGw58tnwkeVIVJFRAT4ydaLG46mYKQCHj0qdKvCR5ci+/DxthSxHYvwZKvCR5UiO13dQfGw58tnwm5YjMyFSpxJ8ZOpE+DPUTLGCw/9+NnxJOZKn5ptUg49Mnc39GWrwkUXG5tY2RdMLffMoxXo2/AUPUqzGRUZF+H35M1TNTYXDbzwDiir8nvwZqvB78meowkemzqbWNmXzsvXjz1CG30/qVIbfT+pUN6kfDr+hP0Mdfi/+DHX4SH9Gs9SpcEZIHH6zH/lViN+HP0Mhfh/+DIX4ffgzVM6GivNnCOdiGwof6SlvkjpV4vfgz1A6lS4Ov4k/Qyl+9/4Mpfjd+zOU4iOLjIK52AbDR/ozLs+G37k/Qy0+MnXW+zMUz0GOw6+fclUxftf+DMX4XfszFON37c9QjI/0Z9Ra21Tjd+zPUI3fsbVNNX7H/gzl+N36M5Tj44qMfs3Jrxy/uT9jMqp3ByjHb+bPaII+DH5t6vxqiD4MvjR1YtCHwRemzq+aAahPgs/zZ8iG/co0AH41dbZFBw2AH3WEDhoAP/dn1A22bqIh8L1mg62baAh8q7tfjBoCv0O98YfUG39I1eO/+K9chpPnVdlpJ8R/Db3xh9Qbf0iJ8efe8ZgVxD+TlwaZz9j3wSAyD8M9vCQKtX2Yvthp32F40bRLGH5q5/zjdB7kJYnJjXkfoR/Ok/+/86C9lq7D/4bP/HQzmb7DfMnDlpib/O3tVIefuspI90w2IgwspTrxBi5gJoYiCRcGNB9qmiNNO8GjVdEyTn9bLrc4pk/sMMwGKkZFDdTIVzcu/GCFE8XOQ6DgDjs0uSXtavBhqsnZmDziQYfjFSoG6ZJjMkxjozkOEDqOBfhW8s46Q10hIvhHzXaciHycFqVX0GB29cxdNdOnZM9cLWcKC1u3BD+CdVwBf+rCqvOCHvzInZPuN+JPmVAPniL8EXm8sGAjV2IpmhFbWkS+hZf5LKz06JBfoSMak4N0ysopM6p7YUVwPtKdkCxo53vQyAxLRQFvT+i+SifNGpa5EU/lMTvE/+rwbdIvZsOSJtlkQKrjUbLbPNhkBT/I8ae6C4NQcvz8IAO+R5aAdSXfwshNel723Wl8sA5Pi+9O8H1yNu0AlvbHifBdUky+7H7hJUD6JC7S18m7WLz3zUifL/n4BoGELSSnvj/NzgARvltUswn+Id1k8jqmOxxF+E5ZC7dyfBvwj67+tb3DN8djewb47jFB5+PPgoOZntHJOZAcU6eCPx0nKznl+GZxiqzTq9DNvptFd9hh8E3Atw3d9u/wQRE5eZILXYCf5w9YuQVXVAWfaJLj20VBbE1nIltnfNHovW8mG7rHH902P1ty6SYhk4iLP3XAKLUgqEc4G1YsvnvbbOI9hV/u/YVnZvwn1lcsx//0/Y/kJY3vJIf1PvNkPxw6Jr9pO3O4+Mlp80u2kJBPLSvjEZ37ZrHwmtjh8kzEGlsll+4yxUleQgdZWOBPdFOceeAXkCNTmHlIGsidsq4M36EzzxIyEdnWRzP8Mank20BOsickXpI4rdQsJ9z7l+Qf/smT4kdANt2f9mkOFeKXLGuymmzvN8RP0pPzOyeXqwHrg60FGX58j+8Fh8N2Cfg7cpcW4+s56Tq9X1Hn/ipZhw/45urmlK2GJHAbjLN1NsTPn3XD8qWlZfjaPX7W5iH4cNyP5W5LFZT4QXr9Gul/lcxTtnmKLt0x/f6DtdcI8XeQoqaH4mU6isY24T/PNMnJvjbJnti6Jsg9aQvTTa6ywDRJfvTIu1S+acJddmRZ2x/ThN1+dk3YvzfTJYnQTOVp+6kDGhff3LCTG8I6G4bxYdv0MOA/295/Cf1R/MvnXCxejfb7YFxn6+QknV2NAy8gf/wqdD6f5oKfpJlXY31BrAhfPstkFf2+rmne1XFF3XZTd/ZTJRP5mC278ovDIny5k5hZxURQdlizk7pKO00dtu4oNcRcK4GP4UuGaDM/oV7T58sM0ZH7eaJ/TOBD+NKhPrSDsK7LuprOJXKZwDp8x66Iel6gh9hew/nvPvTok5yPH6W3KJe5HGjPCY3vcmJre5hpfNngGcovXWx/WiiiRk5Q+MXe+6YvGwF+/nDi80I7xNedWOZ6ofCp0TjUIRHgh/crsJnAOnw7eQwqFTPD/6sjZRx7tOGP1OLtffqXS2irKmfvn0tbv8UGIi9ddhQid1KmyLzeDfOm9z7pHAxXMTUnD3O/p/EjIuoPDybOyiDKWBTnsr53eeZhbcKSzDMNqoGP4WsfV2EdjD4EEnyzeqjkiXP2wQQ+iJ/IX5j8r0ANlpbt/chmjZLMyUNSGBt/pgPr8M3YoOSd7vFBu0l8tO8cF2UuqrltMWYxXuL8pK8yDD5q0OS/A3MulfdSCn86CYLgcDOY2bSqV2Suso1G3eBvVOAD+PP0yQ5klS0EatweH58XKcr7ZRqmxuEbVGAd/viwragkZX5VLHuypWdb8HmRJT49tF6AbwSHRNv4SG9qRQXim2zlfYcdZzI1bZM5/akzmotPT8kjwOeJLkO0wKeopIH0WF0uPn2gmuNHSzrwIXzZdHbMHBNcfPrgUeN65fhXNhD/sMhOHvE74o2xdSuPi1Q+oq5SaoFRyS8e9OrMmOcyYWlutJDobob35e1oFt/BctfeqhqhGV4h6ottyr+Oyn77r4VXlRHfDv7d6ME/2lHyInrjD6k3/pB64w+pBYsfjatdUs8th8V/Rf0N/GYTEz2f7BR/7hmvKO+Q4r+wXh3/P8UAO208AjO4AAAAAElFTkSuQmCC;" vertex="1" parent="1">
          <mxGeometry width="265.28" height="370" as="geometry" />
        </mxCell>
        <mxCell id="tGE6Te9pi-L5Qc-fNbb4-2" value="&lt;font style=&quot;font-size: 72px;&quot;&gt;Teen&lt;/font&gt;" style="rounded=0;whiteSpace=wrap;html=1;" vertex="1" parent="1">
          <mxGeometry x="266" width="317.74" height="180" as="geometry" />
        </mxCell>
      </root>
    </mxGraphModel>
  </diagram>
</mxfile>
